<svg xmlns="http://www.w3.org/2000/svg" viewBox="0 0 500 500"><g id="freepik--background-simple--inject-7"><path d="M243.6,327.37C159.16,315,63.76,275.8,73.8,179.67,82.92,92.45,181.32,48,258.87,101.28c33.44,23,39.58,63.31,77.5,81.69s93,19.87,93.19,75.25C429.8,344,299.17,335.51,243.6,327.37Z" style="fill:#42B883"></path><path d="M243.6,327.37C159.16,315,63.76,275.8,73.8,179.67,82.92,92.45,181.32,48,258.87,101.28c33.44,23,39.58,63.31,77.5,81.69s93,19.87,93.19,75.25C429.8,344,299.17,335.51,243.6,327.37Z" style="fill:#fff;opacity:0.9"></path></g><g id="freepik--to-do-list--inject-7"><path d="M239.41,129.51H404.06a5.94,5.94,0,0,1,6,6.38L396.63,352.22a6.91,6.91,0,0,1-6.78,6.39H225.19a6,6,0,0,1-6-6.39l13.42-216.33A6.92,6.92,0,0,1,239.41,129.51Z" style="fill:#42B883"></path><path d="M239.41,129.51H404.06a5.94,5.94,0,0,1,6,6.38L396.63,352.22a6.91,6.91,0,0,1-6.78,6.39H225.19a6,6,0,0,1-6-6.39l13.42-216.33A6.92,6.92,0,0,1,239.41,129.51Z" style="opacity:0.4"></path><path d="M235.63,129.51H400.28a5.94,5.94,0,0,1,6,6.38L392.85,352.22a6.91,6.91,0,0,1-6.79,6.39H221.41a6,6,0,0,1-6-6.39l13.42-216.33A6.91,6.91,0,0,1,235.63,129.51Z" style="fill:#42B883"></path><polygon points="224.34 346.93 384.61 348.85 397.61 139.33 237.22 139.33 224.34 346.93" style="opacity:0.4"></polygon><path d="M219.66,344.81H382c8.94-81.91,11.69-126.13,12.91-208H232.57C231.35,218.68,228.61,262.9,219.66,344.81Z" style="fill:#fff"></path><path d="M375.49,193.75H347.54a2,2,0,0,1-1.5-.65,2.08,2.08,0,0,1-.56-1.54l1.73-27.94a2.07,2.07,0,0,1,2.06-1.94h28a2.07,2.07,0,0,1,2.06,2.19l-1.74,27.95A2,2,0,0,1,375.49,193.75Zm-25.75-4.12h23.81L375,165.81H351.21Z" style="fill:#42B883;opacity:0.30000000000000004"></path><path d="M372.84,236.32H344.9a2.07,2.07,0,0,1-1.5-.65,2.05,2.05,0,0,1-.56-1.54l1.73-27.95a2.06,2.06,0,0,1,2.06-1.93h27.95a2,2,0,0,1,1.5.65,2.08,2.08,0,0,1,.56,1.54l-1.74,27.94A2.06,2.06,0,0,1,372.84,236.32Zm-25.75-4.13H370.9l1.48-23.82H348.57Z" style="fill:#42B883;opacity:0.30000000000000004"></path><path d="M370.2,278.88H342.26a2.06,2.06,0,0,1-1.51-.65,2,2,0,0,1-.55-1.54l1.73-27.94a2.07,2.07,0,0,1,2.06-1.94h27.95a2.07,2.07,0,0,1,1.5.65A2.11,2.11,0,0,1,374,249L372.26,277A2.06,2.06,0,0,1,370.2,278.88Zm-25.75-4.12h23.81l1.48-23.82H345.93Z" style="fill:#42B883;opacity:0.30000000000000004"></path><path d="M367.56,321.45H339.62a2.1,2.1,0,0,1-1.51-.65,2,2,0,0,1-.55-1.54l1.73-27.95a2.07,2.07,0,0,1,2.06-1.93H369.3a2,2,0,0,1,1.5.65,2.08,2.08,0,0,1,.56,1.54l-1.74,27.94A2.07,2.07,0,0,1,367.56,321.45Zm-25.75-4.13h23.81l1.48-23.82H343.29Z" style="fill:#42B883;opacity:0.30000000000000004"></path><path d="M259.88,174.06h63.29a3.78,3.78,0,0,0,3.71-3.49h0a3.25,3.25,0,0,0-3.28-3.49H260.32a3.76,3.76,0,0,0-3.71,3.49h0A3.25,3.25,0,0,0,259.88,174.06Z" style="fill:#42B883;opacity:0.30000000000000004"></path><path d="M271,188.36h51.25a3.78,3.78,0,0,0,3.71-3.49h0a3.25,3.25,0,0,0-3.27-3.5H271.46a3.78,3.78,0,0,0-3.71,3.5h0A3.25,3.25,0,0,0,271,188.36Z" style="fill:#42B883;opacity:0.30000000000000004"></path><path d="M256.79,223.94h63.29a3.25,3.25,0,0,1,3.27,3.49h0a3.78,3.78,0,0,1-3.71,3.49H256.35a3.25,3.25,0,0,1-3.27-3.49h0A3.78,3.78,0,0,1,256.79,223.94Z" style="fill:#42B883;opacity:0.30000000000000004"></path><path d="M269.71,209.64H321a3.25,3.25,0,0,1,3.28,3.49h0a3.78,3.78,0,0,1-3.71,3.5H269.28a3.25,3.25,0,0,1-3.28-3.5h0A3.78,3.78,0,0,1,269.71,209.64Z" style="fill:#42B883;opacity:0.30000000000000004"></path><path d="M254.6,259.19h63.29a3.78,3.78,0,0,0,3.71-3.49h0a3.25,3.25,0,0,0-3.28-3.49H255a3.78,3.78,0,0,0-3.71,3.49h0A3.25,3.25,0,0,0,254.6,259.19Z" style="fill:#42B883;opacity:0.30000000000000004"></path><path d="M291.54,273.49H317a3.78,3.78,0,0,0,3.71-3.49h0a3.26,3.26,0,0,0-3.28-3.5H292a3.79,3.79,0,0,0-3.71,3.5h0A3.25,3.25,0,0,0,291.54,273.49Z" style="fill:#42B883;opacity:0.30000000000000004"></path><path d="M265.75,273.49h13.43a3.78,3.78,0,0,0,3.71-3.49h0a3.26,3.26,0,0,0-3.28-3.5H266.18a3.79,3.79,0,0,0-3.71,3.5h0A3.25,3.25,0,0,0,265.75,273.49Z" style="fill:#42B883;opacity:0.30000000000000004"></path><path d="M252,301.76h63.29a3.78,3.78,0,0,0,3.71-3.49h0a3.26,3.26,0,0,0-3.28-3.5H252.39a3.78,3.78,0,0,0-3.71,3.5h0A3.25,3.25,0,0,0,252,301.76Z" style="fill:#42B883;opacity:0.30000000000000004"></path><path d="M263.11,316.06h51.25a3.79,3.79,0,0,0,3.71-3.5h0a3.25,3.25,0,0,0-3.28-3.49H263.54a3.78,3.78,0,0,0-3.71,3.49h0A3.26,3.26,0,0,0,263.11,316.06Z" style="fill:#42B883;opacity:0.30000000000000004"></path><path d="M360.11,186.1a2,2,0,0,1-1.16-.36l-10.77-7.35a2.07,2.07,0,0,1,2.33-3.41l9.2,6.29c3.36-4.05,12.94-15,20.91-18.59a2.06,2.06,0,1,1,1.68,3.77c-8.7,3.87-20.45,18.72-20.56,18.87A2.08,2.08,0,0,1,360.11,186.1Z" style="fill:#42B883"></path><path d="M355.1,227.84a2.09,2.09,0,0,1-1.44-.57l-9.37-9a2.07,2.07,0,1,1,2.87-3l8,7.69c3.95-3.53,15-12.93,23.36-15.21a2.06,2.06,0,1,1,1.09,4c-9.12,2.49-22.93,15.43-23.07,15.56A2,2,0,0,1,355.1,227.84Z" style="fill:#42B883"></path><path d="M337.57,141.73l3,0a6.12,6.12,0,0,0,6.18-6.06l0-5.58a.61.61,0,0,0-.62-.61h-8.48a.7.7,0,0,0-.69.69L337,141.12A.61.61,0,0,0,337.57,141.73Z" style="opacity:0.4"></path><path d="M291.55,119.39h51.06a4.93,4.93,0,0,1,5,5.76l-1.53,11.37a6.83,6.83,0,0,1-6.54,5.76H288.46a4.93,4.93,0,0,1-5-5.76L285,125.15A6.83,6.83,0,0,1,291.55,119.39Z" style="fill:#42B883"></path><path d="M291.55,119.39h51.06a4.93,4.93,0,0,1,5,5.76l-1.53,11.37a6.83,6.83,0,0,1-6.54,5.76H288.46a4.93,4.93,0,0,1-5-5.76L285,125.15A6.83,6.83,0,0,1,291.55,119.39Z" style="fill:#fff;opacity:0.6000000000000001"></path><path d="M341.29,124.89h-23a1.55,1.55,0,1,1,0-3.09h23a1.55,1.55,0,0,1,0,3.09Z" style="fill:#fff;opacity:0.5"></path><path d="M310.64,124.89h-2.42a1.55,1.55,0,1,1,0-3.09h2.42a1.55,1.55,0,1,1,0,3.09Z" style="fill:#fff;opacity:0.5"></path></g><g id="freepik--Character--inject-7"><polygon points="169.46 346.65 179.33 348.54 202.66 238.82 188.17 236.05 169.46 346.65" style="fill:#42B883"></polygon><polygon points="204.15 162.64 215.97 158.75 216.79 154.46 205.78 154.12 204.15 162.64" style="fill:#263238"></polygon><polygon points="203.85 160.14 217.31 155.76 203.48 234.52 188.99 231.76 203.85 160.14" style="fill:#42B883"></polygon><rect x="189.05" y="233.1" width="13.55" height="4.37" transform="matrix(-0.98, -0.19, 0.19, -0.98, 344.08, 503.11)" style="fill:#263238"></rect><path d="M171.24,359.64c-.13.65.14,1.25.6,1.34s.94-.37,1.06-1-.15-1.25-.61-1.34S171.36,359,171.24,359.64Z" style="fill:#42B883"></path><polygon points="170.56 359.72 173.5 360.28 179.33 348.54 169.46 346.65 170.56 359.72" style="fill:#263238"></polygon><path d="M188.34,211.82a1.25,1.25,0,0,1-1.13-1.77c6.2-13.29,11.23-41.05,11.91-47.65a5.39,5.39,0,0,1,3.24-4.41l3.27-1.41a1.24,1.24,0,1,1,1,2.28l-3.27,1.41a2.93,2.93,0,0,0-1.75,2.39c-.71,6.93-5.7,34.68-12.12,48.44A1.25,1.25,0,0,1,188.34,211.82Z" style="fill:#263238"></path><path d="M142.27,158.79c-2.49,4.27-5,8.8-7.37,13.24-1.17,2.24-2.31,4.48-3.4,6.73s-2.11,4.52-3,6.78l-.17.41s0,0,0,0a.61.61,0,0,0-.07.21,5,5,0,0,0-.07,1,15.14,15.14,0,0,0,.42,2.94,50,50,0,0,0,2.2,6.76c.89,2.3,1.91,4.61,3,6.93s2.2,4.64,3.29,6.9l-4.75,3.24a86.84,86.84,0,0,1-9.41-13.27,48.71,48.71,0,0,1-3.65-7.76,25.79,25.79,0,0,1-1.2-4.72,15.21,15.21,0,0,1-.12-2.93,12.65,12.65,0,0,1,.24-1.72c.06-.29.16-.62.25-.93l.16-.51a110.51,110.51,0,0,1,6-15.21,142.3,142.3,0,0,1,7.79-14.19Z" style="fill:#ffc3bd"></path><path d="M136.35,209.25l4.47,3.48L134,218.37s-3.11-3-2.63-6.69Z" style="fill:#ffc3bd"></path><polygon points="142.64 217.81 138.09 223.66 133.99 218.37 140.82 212.73 142.64 217.81" style="fill:#ffc3bd"></polygon><path d="M168,117.11c.13.6.55,1,.94,1s.62-.64.5-1.24-.55-1-.94-.95S167.92,116.5,168,117.11Z" style="fill:#263238"></path><path d="M168.53,118.15a22.22,22.22,0,0,0,3.95,4.59,3.57,3.57,0,0,1-2.79,1.13Z" style="fill:#ed847e"></path><path d="M165.14,114.2a.37.37,0,0,1-.24-.1.35.35,0,0,1,0-.51,3.54,3.54,0,0,1,3.08-1.2.36.36,0,1,1-.12.71h0a2.86,2.86,0,0,0-2.43,1A.36.36,0,0,1,165.14,114.2Z" style="fill:#263238"></path><path d="M150.79,125.62c1.1,5.61,2.2,15.88-1.72,19.62,0,0,1.53,5.68,11.94,5.68,11.45,0,5.48-5.68,5.48-5.68-6.25-1.5-6.09-6.13-5-10.49Z" style="fill:#ffc3bd"></path><path d="M146.85,145.66c-.83-2,1-8,2.85-8.57,2.09-.64,10-.28,14,1.37,2.81,2.84,3.62,8.73,3.62,8.73Z" style="fill:#263238"></path><path d="M114.15,407.52a2.46,2.46,0,0,0,1.9-.1.72.72,0,0,0,.18-.84.86.86,0,0,0-.47-.54c-1-.49-3.41.48-3.51.52a.17.17,0,0,0-.11.16.19.19,0,0,0,.1.17A9,9,0,0,0,114.15,407.52Zm1.24-1.22.22.07a.49.49,0,0,1,.27.31c.1.33,0,.43-.06.46-.41.35-1.94,0-3-.4A5.88,5.88,0,0,1,115.39,406.3Z" style="fill:#42B883"></path><path d="M112.28,406.91h.09c.87-.25,2.72-1.57,2.74-2.44a.58.58,0,0,0-.46-.58,1,1,0,0,0-.81.06c-1,.52-1.67,2.65-1.69,2.74a.17.17,0,0,0,0,.18Zm2.17-2.71.08,0c.22.08.22.19.22.23,0,.52-1.24,1.55-2.13,2a4.36,4.36,0,0,1,1.39-2.16A.68.68,0,0,1,114.45,404.2Z" style="fill:#42B883"></path><path d="M169.44,408.81c1,0,1.94-.14,2.25-.58a.67.67,0,0,0,0-.79.89.89,0,0,0-.58-.42c-1.27-.35-3.95,1.17-4.06,1.24a.18.18,0,0,0-.09.19.17.17,0,0,0,.14.14A13.19,13.19,0,0,0,169.44,408.81Zm1.22-1.49a1.29,1.29,0,0,1,.35.05.49.49,0,0,1,.35.25c.13.22.09.34,0,.4-.36.5-2.29.51-3.72.31A8.1,8.1,0,0,1,170.66,407.32Z" style="fill:#42B883"></path><path d="M167.13,408.6l.07,0c.93-.41,2.76-2.07,2.62-2.94,0-.2-.18-.45-.68-.5a1.28,1.28,0,0,0-1,.31c-1,.8-1.18,2.86-1.19,2.95a.16.16,0,0,0,.07.16A.15.15,0,0,0,167.13,408.6Zm1.87-3.11h.11c.32,0,.34.16.35.2.09.52-1.16,1.82-2.1,2.39a4.25,4.25,0,0,1,1-2.36A1,1,0,0,1,169,405.49Z" style="fill:#42B883"></path><polygon points="158.71 408.42 166.37 408.42 167.13 390.68 159.47 390.68 158.71 408.42" style="fill:#ffc3bd"></polygon><polygon points="103.43 404.87 111.12 406.49 116.55 389.97 108.85 388.35 103.43 404.87" style="fill:#ffc3bd"></polygon><path d="M112,405.74l-8.41-1.82a.67.67,0,0,0-.75.37l-2.92,6.34a1.13,1.13,0,0,0,.81,1.57c2.95.58,4.41.72,8.11,1.52,2.27.49,7.41,1.74,10.55,2.42s4.23-2.34,3-2.9c-5.49-2.51-7.79-4.72-9.27-6.78A1.88,1.88,0,0,0,112,405.74Z" style="fill:#263238"></path><path d="M166.32,407.53H158a.67.67,0,0,0-.65.52l-1.51,6.81a1.1,1.1,0,0,0,1.1,1.36c3-.05,7.38-.22,11.17-.22,4.43,0,2.71.24,7.91.24,3.15,0,4-3.18,2.7-3.47-6-1.31-5.33-1.45-10.51-4.64A3.5,3.5,0,0,0,166.32,407.53Z" style="fill:#263238"></path><path d="M135.35,147c-7.18,1.64-13.09,20-13.09,20l14.41,11a31.51,31.51,0,0,0,7.65-14.16C146.79,154.17,142.69,145.28,135.35,147Z" style="fill:#263238"></path><path d="M141.51,160.45c-3.9,3.85-5.17,10.88-5.48,17l.64.49a31.4,31.4,0,0,0,7.65-14.16c.15-.57.27-1.15.38-1.71Z" style="opacity:0.2"></path><path d="M178.27,147.36s8.15,9.21.45,66.21h-41c-.28-6.29,3.67-37-2.4-66.6a106.75,106.75,0,0,1,13.72-1.73,148.77,148.77,0,0,1,17.42,0A76.94,76.94,0,0,1,178.27,147.36Z" style="fill:#263238"></path><polygon points="167.13 390.68 166.74 399.83 159.07 399.83 159.46 390.68 167.13 390.68" style="opacity:0.2"></polygon><polygon points="108.85 388.35 116.55 389.97 113.74 398.49 106.05 396.87 108.85 388.35" style="opacity:0.2"></polygon><path d="M147.59,119.93c2,7.34,2.74,11.74,7.27,14.79,6.82,4.6,15.31-.67,15.57-8.46.24-7-3-17.83-10.9-19.31A10.36,10.36,0,0,0,147.59,119.93Z" style="fill:#ffc3bd"></path><path d="M154.91,133.87h-.1a7.44,7.44,0,0,1-6.07-3.08c-2.3-3.21-5.53-8.78-5.9-15.21,2.92-3.08,13.89-5.11,18.78-4,4.07.93,3.48,12.52-.37,18.79A7.47,7.47,0,0,1,154.91,133.87Z" style="fill:#ffc3bd"></path><path d="M154.91,133.87h-.1a7.44,7.44,0,0,1-6.07-3.08c-2.3-3.21-5.53-8.78-5.9-15.21,2.92-3.08,13.89-5.11,18.78-4,4.07.93,3.48,12.52-.37,18.79A7.47,7.47,0,0,1,154.91,133.87Z" style="fill:#263238;opacity:0.8"></path><path d="M147.29,118.19a6.61,6.61,0,0,1-6-4.27c-.87-2.6.05-8.09,5.28-8.25s5.77-3.14,4.16-3.75c3.42.25,2.34,2.64,2.34,2.64.91,0,1.77-2.45,7-2.25s7.78-.92,7.11-2.09c2.47.5,1.78,3.5-.31,4.31,0,0,4.95,3.75,6.12,1.69.83,1.5-.81,3.3-7.06,2.48,2.49,3.49-3.41,2.71-5.92,4.29S150.74,118.44,147.29,118.19Z" style="fill:#263238"></path><path d="M160.08,119.59a8.66,8.66,0,0,0,3.09,4.57c2,1.48,3.48,0,3.34-2.24-.12-2-1.32-5.25-3.51-5.85S159.51,117.38,160.08,119.59Z" style="fill:#ffc3bd"></path><path d="M164.19,213.57s-8.7,58.54-13.47,80.47c-5.22,24-33.25,103.47-33.25,103.47l-13.71-3s19.6-64.76,24-98.33c3.37-25.79,10-82.65,10-82.65Z" style="fill:#263238"></path><path d="M120.76,392.94s-2.56,5-2.56,5l-15.43-3.34,1.3-4.64Z" style="fill:#42B883"></path><path d="M158.69,234.43c-10.05,2-9,39.45-7.77,58.73,2.89-13.63,7.14-39.85,10-58.46A3.46,3.46,0,0,0,158.69,234.43Z" style="opacity:0.30000000000000004"></path><path d="M178.72,213.57s1.06,57.27.22,80.63c-.86,24.3-9.35,103.86-9.35,103.86h-13s-.47-78.14-1.05-102c-.63-26-3.77-82.49-3.77-82.49Z" style="fill:#263238"></path><path d="M172.09,392.89c.06,0-.74,5.38-.74,5.38H155.57l-.43-4.8Z" style="fill:#42B883"></path><path d="M178.46,146.35c2,.83,3.93,2.32,4.51,7.27.56,4.75-.52,46.38-1.82,59.67a1.92,1.92,0,0,1-1.69,1.83c-8.19.35-33.56-3.07-42.12-1.57-1,.18-1.87-.92-1.81-1.92.67-12.95-.3-33.85-1.88-47.12-1-8.67-1-17.74,6.23-19.28C145.26,144.09,170.64,143.09,178.46,146.35Z" style="fill:#42B883"></path><path d="M181.63,157.85c.46,2.2,1,4.59,1.5,6.87s1.12,4.59,1.76,6.84,1.3,4.46,2.06,6.57a36.22,36.22,0,0,0,2.56,5.79,11.49,11.49,0,0,0,1.33,2c.19.21.34.35.38.39s0,.09.19.15a5.33,5.33,0,0,0,2,.26,24,24,0,0,0,3-.32,88.11,88.11,0,0,0,13.26-3.9l2.91,5a50.42,50.42,0,0,1-13.72,7.84,25,25,0,0,1-4.26,1.15,15.57,15.57,0,0,1-5.32.08,10.87,10.87,0,0,1-3.25-1.1,13.13,13.13,0,0,1-2.54-1.85,20.73,20.73,0,0,1-3.21-3.82,60.81,60.81,0,0,1-6.51-14.87c-.75-2.47-1.44-4.94-2-7.43s-1.12-4.91-1.55-7.56Z" style="fill:#ffc3bd"></path><path d="M164.78,154.85c-6.22,12.51,8.56,26.65,8.56,26.65l16.48-8.6a90.25,90.25,0,0,0-5.63-19.32C179.39,142.9,168.36,147.66,164.78,154.85Z" style="fill:#263238"></path><path d="M208.14,183.2l5.59-3.68,2.32,8.36s-2.5,2.93-7.08-.26Z" style="fill:#ffc3bd"></path><path d="M218.6,182.9l-.18,1.76a3.36,3.36,0,0,1-1.14,2.18l-1.23,1-2.32-8.36.71-.18A3.34,3.34,0,0,1,218.6,182.9Z" style="fill:#ffc3bd"></path></g></svg>